<svg width="22" height="22" viewBox="0 0 22 22" fill="none" xmlns="http://www.w3.org/2000/svg">
<path d="M3.85245 0.375L14.0977 10.6184L16.7415 7.9746C13.1289 5.78276 8.29042 2.84244 6.11441 1.52043L4.65656 0.637253C4.3989 0.480274 4.12297 0.395734 3.85245 0.375ZM2.28856 1.60143C2.26783 1.71398 2.25 1.82709 2.25 1.94853V22.1922C2.25 22.2771 2.26708 22.3562 2.27892 22.4372L12.7016 12.0145L2.28856 1.60143ZM18.4789 9.0294L15.4938 12.0145L18.4269 14.9475C19.9809 14.0056 21.0572 13.3515 21.1767 13.2795C21.7049 12.9566 22.0032 12.4695 21.9943 11.9373C21.9864 11.415 21.688 10.9481 21.1805 10.6608C21.067 10.5956 20.0053 9.95449 18.4789 9.0294ZM14.0977 13.4106L3.88331 23.625C4.08176 23.5905 4.27995 23.5312 4.46951 23.4167C4.73216 23.2568 11.8269 18.9523 16.6894 16.0023L14.0977 13.4106Z" fill="#000000"/>
</svg>
