<svg width="215" height="60" viewBox="0 0 215 48" fill="none" xmlns="http://www.w3.org/2000/svg">
<path d="M168.937 1.16338C167.693 1.13591 166.449 1.1158 165.204 1.11232C160.685 1.12183 156.164 1.19508 151.653 1.6402C149.073 1.86133 146.493 2.07663 143.91 2.20578C141.135 2.34467 140.943 2.29822 138.116 2.37633C137.12 2.40308 136.125 2.4439 135.13 2.47759C129.596 2.71917 124.063 3.20508 118.525 3.1022C112.781 2.98116 107.036 2.82868 101.296 2.517C95.3714 2.19431 89.447 1.87113 83.5245 1.48486C76.6841 1.1545 69.8412 0.937432 62.9962 0.946813C56.6746 1.03376 50.3512 1.14743 44.0377 1.68136C38.8454 2.02811 33.6555 2.42983 28.467 2.88637C27.0418 3.0182 25.6163 3.15139 24.1882 3.04162C21.4526 2.99348 20.5426 6.80641 21.5048 9.2733C19.9553 9.21455 18.4059 9.14383 16.8566 9.07141C14.3934 8.95588 11.9297 8.87486 9.4659 8.7895C6.86742 8.74363 5.92654 12.1794 6.66489 14.6368C3.95279 15.7245 3.95855 20.8746 6.1656 22.3351C6.02973 22.8848 5.97875 23.4698 6.00246 24.0518C5.77363 24.0371 5.54493 24.0214 5.31606 24.0097C4.88781 23.9908 4.45959 23.9735 4.03156 23.9466C0.083044 23.8018 -0.133869 31.776 3.66877 32.1997C3.3024 34.2107 2.84258 36.2135 2.94279 38.2619C2.97754 38.9726 3.87149 38.7251 4.35233 38.8586C4.91356 39.0146 6.7598 39.0128 7.18162 39.0052C8.5029 38.9807 9.88488 38.8751 11.2246 38.7744C11.9558 38.7826 12.6871 38.7951 13.4183 38.7993C11.3692 40.8183 11.9306 46.2711 15.1904 46.3287L15.1904 46.3295C17.9181 46.3099 20.6458 46.3366 23.3728 46.4108C24.1663 46.4376 24.9596 46.4698 25.7531 46.4925C29.9546 46.6122 27.7109 46.4983 32.2177 46.7127C35.745 46.8806 39.27 47.1207 42.7959 47.336C47.6174 47.5341 52.4469 47.5951 57.269 47.3409C59.5017 47.2224 62.487 46.9515 64.7165 46.762C71.2894 46.1985 77.8639 45.6782 84.4333 45.03C86.2232 44.8388 88.0152 44.7157 89.8077 44.617C94.0831 44.9768 98.3592 45.3124 102.635 45.6737C104.513 45.7799 107.045 45.9324 108.907 46.0006C113.571 46.1716 118.237 46.0564 122.902 46.0036C129.477 45.8837 136.053 45.6839 142.628 45.7677C145.83 45.8984 149.032 46.0333 152.233 46.1949C152.63 46.2185 153.027 46.2422 153.424 46.2661C153.73 46.3988 154.061 46.5868 154.179 46.3134C155.722 46.4279 156.495 46.6789 156.348 44.2377C160.444 44.2451 164.541 44.2676 168.637 44.3994C169.902 44.4938 171.168 44.5885 172.433 44.6932C175.866 45.0187 179.293 45.4834 182.722 45.8808C184.979 46.1351 187.24 46.3263 189.502 46.4492C189.988 46.4947 190.173 46.4998 192.829 46.6837C193.497 46.73 194.165 46.7881 194.833 46.8355C195.25 46.8652 195.96 47.495 196.084 46.9145C196.084 46.9138 196.084 46.9135 196.084 46.9129C197.259 47.3542 197.212 47.1743 196.708 44.0914C196.73 43.993 196.745 43.9284 196.767 43.8333C197.994 43.9163 199.219 44.0027 200.446 44.0684C200.588 44.0767 202.27 44.1565 202.494 44.1613C205.018 44.2133 206.224 44.1288 205.698 37.0899C206.525 37.1324 206.956 37.1708 207.08 36.719C207.361 36.6621 207.642 36.6082 207.923 36.5461C208.381 36.4444 208.831 36.2758 209.286 36.1408C209.906 35.4919 210.958 35.2707 211.147 34.1941C211.575 31.7634 211.423 30.2488 210.887 29.1902C212.44 28.5364 213.093 26.3555 212.839 24.4231C215.947 23.3647 215.724 16.3786 212.038 16.3098C211.054 16.2975 210.07 16.2787 209.086 16.2575C208.025 16.2334 206.963 16.209 205.902 16.1904C205.901 16.0986 205.899 16.0132 205.898 15.9189C206.533 15.8279 207.052 15.5125 207.457 15.0546C208.237 15.551 209.208 15.5308 210.22 14.6198C209.913 11.963 209.796 9.24404 209.298 6.64943C209.243 6.36219 208.889 6.61419 208.684 6.60624C207.709 6.56693 206.731 6.60614 205.755 6.56574C203.822 6.54159 201.89 6.51408 199.957 6.48278C200.15 4.26997 199.185 1.84894 197.018 1.81234L196.004 1.80417C194.604 1.7961 193.204 1.77159 191.804 1.76246C187.914 1.72701 184.025 1.66339 180.136 1.53564C176.404 1.41684 172.672 1.25115 168.939 1.16711L168.937 1.16338ZM68.1098 8.9326C72.2145 8.99409 76.318 9.13762 80.4207 9.32488C79.9434 9.37927 79.4457 9.44356 79.006 9.48322C76.1193 9.74159 73.2262 9.75198 70.3363 9.6509C66.7068 9.5832 63.0772 9.53758 59.4478 9.46251C56.5474 9.4022 53.6473 9.34001 50.747 9.2837C54.8417 9.07506 58.938 8.95261 63.0354 8.89881C64.7269 8.89655 66.4186 8.9085 68.1098 8.93334L68.1098 8.9326ZM196.449 15.7485C197.972 15.7826 199.495 15.8115 201.018 15.844C201.482 15.8565 201.946 15.866 202.411 15.8741C199.854 16.1511 197.297 16.4273 194.739 16.6742C192.75 16.6449 190.762 16.6113 188.773 16.6012C186.24 16.585 183.706 16.5742 181.173 16.5709C182.874 16.4838 184.572 16.2881 186.268 16.063C187.956 15.8099 189.651 15.7185 191.347 15.6926C193.048 15.6859 194.749 15.7151 196.449 15.7477L196.449 15.7485ZM206.98 35.0445C207.033 35.0775 207.086 35.1093 207.136 35.1494C207.145 35.1558 207.155 35.1942 207.145 35.1894C207.087 35.1562 206.996 35.1482 206.982 35.0611C206.981 35.0548 206.979 35.0506 206.979 35.0443L206.98 35.0445ZM59.5711 37.1235C59.7477 37.8142 59.9875 38.5012 60.2378 39.1789C59.2199 39.2576 58.2038 39.3342 57.144 39.3907C52.4434 39.6412 47.7369 39.5884 43.0366 39.3878C39.8201 39.191 36.6039 38.9897 33.3869 38.8076C37.0184 38.7322 40.6492 38.6102 44.2791 38.4021C48.6826 38.0711 53.0813 37.6208 57.4846 37.2817C58.1799 37.2241 58.8757 37.1761 59.5711 37.1232L59.5711 37.1235ZM4.62385 38.6954C4.62316 38.7017 4.62272 38.7038 4.62206 38.708C4.55327 38.7038 4.34745 38.7017 4.41621 38.6975C4.48539 38.6956 4.55463 38.6933 4.62384 38.6932L4.62385 38.6954Z" fill="#FFB000"/>
</svg>
